# xmcd
#
# Track frame offsets:
# 150
# 16934
# 36327
# 54013
# 71894
# 94515
# 116189
# 130740
# 146263
# 160954
# 179556
# 204399
# 218428
# 236469
# 256356
#
# Disc length: 3636 seconds
#
#
# Revision: 3
# Processed by: cddbd v1.5.1PL0 Copyright (c) Steve Scherf et al.
# Submitted via: FreeRIP 2.93 
#
DISCID=cc0e320f
DTITLE=xatsgiannis,Michallis - Μόνος μου
DYEAR=2003
DGENRE=Greek Pop
TTITLE0=Αν μου τηλεφωνούσες
TTITLE1=Μόνος μου
TTITLE2=Είσαι εδώ
TTITLE3=Θέλω να χαθώ
TTITLE4=Πάρτυ
TTITLE5=Μόνο στα όνειρα
TTITLE6=Αγγιγμα ψυχής
TTITLE7=Και θα χαθώ
TTITLE8=Το σώμα που ζητάς
TTITLE9=Δεν έχω χρόνο
TTITLE10=Οι τίτλοι του τέλους
TTITLE11=Είμαι σκιά που γυρνά
TTITLE12=Χειμώνας
TTITLE13=Είσαι εδώ
TTITLE14=Χωρίς αναπνοή
EXTD=
EXTT0=
EXTT1=
EXTT2=
EXTT3=
EXTT4=
EXTT5=
EXTT6=
EXTT7=
EXTT8=
EXTT9=
EXTT10=
EXTT11=
EXTT12=
EXTT13=
EXTT14=
PLAYORDER=
